<svg enable-background="new 0 0 139 139" viewBox="0 0 139 139" xmlns="http://www.w3.org/2000/svg" xmlns:xlink="http://www.w3.org/1999/xlink"><radialGradient id="a" cx="69.955" cy="60.8864" gradientTransform="matrix(1 0 0 -1 0 129.5328)" gradientUnits="userSpaceOnUse" r="68.065"><stop offset="0" stop-color="#fff" stop-opacity=".1"/><stop offset="1" stop-color="#fff" stop-opacity="0"/></radialGradient><path d="m29.64 108.94-23.28-23.28c-2.76-2.84-4.48-6.84-4.48-10.75 0-1.81 1.02-4.64 1.79-6.27l21.49-44.77z" fill="#01579b"/><path d="m109.34 28.35-23.28-23.28c-2.03-2.04-6.27-4.48-9.85-4.48-3.08 0-6.1.62-8.06 1.79l-42.98 21.49z" fill="#40c4ff"/><path d="m57.4 136.7h56.42v-24.18l-42.09-13.43-38.5 13.43z" fill="#40c4ff"/><path d="m25.17 96.41c0 7.18.9 8.95 4.48 12.54l3.58 3.58h80.59l-39.4-44.77-49.25-43.88z" fill="#29b6f6"/><path d="m96.8 23.87h-71.64l88.65 88.65h24.18v-55.52l-28.65-28.65c-4.02-4.04-7.6-4.48-12.54-4.48z" fill="#01579b"/><path d="m30.54 109.84c-3.58-3.6-4.48-7.14-4.48-13.43v-71.64l-.9-.9v72.53c.01 6.3.01 8.04 5.38 13.44l2.69 2.69z" fill="#fff" opacity=".2"/><path d="m137.1 56.11v55.52h-24.18l.9.89h24.18v-55.51z" fill="#263238" opacity=".2"/><path d="m109.34 28.35c-4.44-4.44-8.08-4.48-13.43-4.48h-70.74l.9.9h69.85c2.66 0 9.41-.45 13.42 3.58z" fill="#fff" opacity=".2"/><path d="m137.1 56.11-27.76-27.76-23.28-23.28c-2.03-2.04-6.27-4.48-9.85-4.48-3.08 0-6.1.62-8.06 1.79l-42.98 21.49-21.49 44.77c-.77 1.63-1.79 4.46-1.79 6.27 0 3.91 1.72 7.91 4.48 10.75l21.46 21.3c.51.63 1.11 1.27 1.83 1.98l.9.9 2.69 2.69 23.28 23.28.9.9h55.52.9v-24.18h24.18v-.06-55.46z" fill="url(#a)" opacity=".2"/></svg>